<?xml version="1.0" standalone="no"?>
<!DOCTYPE svg PUBLIC "-//W3C//DTD SVG 20010904//EN" "http://www.w3.org/TR/2001/REC-SVG-20010904/DTD/svg10.dtd">
<!-- Created using Krita: http://krita.org -->
<svg xmlns="http://www.w3.org/2000/svg" 
    xmlns:xlink="http://www.w3.org/1999/xlink"
    xmlns:krita="http://krita.org/namespaces/svg/krita"
    xmlns:sodipodi="http://sodipodi.sourceforge.net/DTD/sodipodi-0.dtd"
    width="1123.2pt"
    height="835.2pt"
    viewBox="0 0 1123.2 835.2">
<defs>
  <marker id="lineMarker0" markerUnits="strokeWidth" refX="0" refY="0" markerWidth="3" markerHeight="3" orient="auto">
      <defs/>
   <g id="Arrow1Mend" fill="none">
     <path id="path4151" transform="matrix(-0.4 0 0 -0.4 1 2)" fill="#c66464" fill-rule="evenodd" d="M12.5 5L17.5 0L0 5L17.5 10Z"/>
    </g>
  </marker>
  <marker id="lineMarker1" markerUnits="strokeWidth" refX="0" refY="0" markerWidth="3" markerHeight="3" orient="auto">
      <defs/>
   <g id="Arrow1Mend" fill="none">
     <path id="path4151" transform="matrix(-0.4 0 0 -0.4 1 2)" fill="#c66464" fill-rule="evenodd" d="M12.5 5L17.5 0L0 5L17.5 10Z"/>
    </g>
  </marker>
  <marker id="lineMarker2" markerUnits="strokeWidth" refX="0" refY="0" markerWidth="3" markerHeight="3" orient="auto">
      <defs/>
   <g id="Arrow1Mend" fill="none">
     <path id="path4151" transform="matrix(-0.4 0 0 -0.4 1 2)" fill="#c66464" fill-rule="evenodd" d="M12.5 5L17.5 0L0 5L17.5 10Z"/>
    </g>
  </marker>
  <marker id="lineMarker3" markerUnits="strokeWidth" refX="0" refY="0" markerWidth="3" markerHeight="3" orient="auto">
      <defs/>
   <g id="Arrow1Mstart" fill="none">
     <path id="path4148" transform="matrix(0.4 0 0 0.4 -1 -2)" fill="#c66464" fill-rule="evenodd" d="M12.5 5L17.5 0L0 5L17.5 10Z"/>
    </g>
  </marker>
  <marker id="lineMarker4" markerUnits="strokeWidth" refX="0" refY="0" markerWidth="3" markerHeight="3" orient="auto">
      <defs/>
   <g id="Arrow1Mstart" fill="none">
     <path id="path4148" transform="matrix(0.4 0 0 0.4 -1 -2)" fill="#c66464" fill-rule="evenodd" d="M12.5 5L17.5 0L0 5L17.5 10Z"/>
    </g>
  </marker>
 </defs>
<rect id="shape09" transform="matrix(0.99999997935 0 0 0.99999995754 627.08134745 128.05141768)" fill="#f2f2f2" fill-rule="evenodd" stroke="#c66464" stroke-width="3.6" stroke-linecap="round" stroke-linejoin="round" width="446.4" height="63.36" rx="27.660521739" ry="27.660521739"/><rect id="shape08" transform="matrix(0.99999995467 0 0 0.999999931 627.08135296 357.9693218)" fill="#f2f2f2" fill-rule="evenodd" stroke="#c66464" stroke-width="3.6" stroke-linecap="round" stroke-linejoin="round" width="446.4" height="63.36" rx="27.660521739" ry="27.660521739"/><rect id="shape02" transform="matrix(0.99999997905 0 0 0.99999991909 49.718716103 357.96931906)" fill="#f2f2f2" fill-rule="evenodd" stroke="#c66464" stroke-width="3.6" stroke-linecap="round" stroke-linejoin="round" width="446.4" height="63.36" rx="27.660521739" ry="27.660521739"/><rect id="shape01" transform="matrix(0.99999995437 0 0 0.99999991692 49.718721613 587.45208842)" fill="#f2f2f2" fill-rule="evenodd" stroke="#c66464" stroke-width="3.6" stroke-linecap="round" stroke-linejoin="round" width="446.4" height="63.36" rx="27.660521739" ry="27.660521739"/><rect id="shape0111" transform="matrix(1.0000000037 0 0 0.99999994564 49.718710593 128.05141768)" fill="#f2f2f2" fill-rule="evenodd" stroke="#c66464" stroke-width="3.6" stroke-linecap="round" stroke-linejoin="round" width="446.4" height="63.36" rx="27.660521739" ry="27.660521739"/><rect id="shape011" transform="matrix(0.99999992999 0 0 0.99999992883 627.08135847 587.45209389)" fill="#f2f2f2" fill-rule="evenodd" stroke="#c66464" stroke-width="3.6" stroke-linecap="round" stroke-linejoin="round" width="446.4" height="63.36" rx="27.660521739" ry="27.660521739"/><text id="shape03" transform="matrix(0.99999996319 0 0 1.0000000231 102.94996769 629.43557867)" fill="#000000" font-family="Courier" font-size="20" font-size-adjust="0.368421" font-weight="600" text-anchor="middle"><tspan x="169.96875">GStreamer RTSP Server</tspan></text><text id="shape021" transform="matrix(0.99999998028 0 0 0.99999998434 135.82496412 400.34323164)" fill="#000000" font-family="Courier" font-size="20" font-size-adjust="0.368421" font-weight="600" text-anchor="middle"><tspan x="137.59375">NVidia HW Encoder</tspan></text><text id="shape031" transform="matrix(0.99999993881 0 0 1.000000035 680.81260322 630.65156398)" fill="#000000" font-family="Courier" font-size="20" font-size-adjust="0.368421" font-weight="600" text-anchor="middle"><tspan x="169.96875">GStreamer RTSP Client</tspan></text><text id="shape11" transform="matrix(0.99999997935 0 0 0.99999995754 768.18759453 171.25089411)" fill="#000000" font-family="Courier" font-size="20" font-size-adjust="0.368421" font-weight="600" text-anchor="middle"><tspan x="81.4375">PC Display</tspan></text><text id="shape021" transform="matrix(0.9999999559 0 0 0.99999999628 769.09384642 401.16879441)" fill="#000000" font-family="Courier" font-size="20" font-size-adjust="0.368421" font-weight="600" text-anchor="middle"><tspan x="80.9375">PC Decoder</tspan></text><text id="shape1" transform="matrix(1.0000000037 0 0 0.99999994564 184.3874611 171.25089359)" fill="#000000" font-family="Courier" font-size="20" font-size-adjust="0.368421" font-weight="600" text-anchor="middle"><tspan x="89.03125">/dev/video0</tspan></text><rect id="shape0" transform="matrix(1.0000000269 0 0 0.99999996701 610.16133639 26.265592817)" fill="none" stroke="#999999" stroke-width="3.6" stroke-linecap="square" stroke-linejoin="bevel" width="480.24" height="653.04"/><rect id="shape01" transform="matrix(1.0000000435 0 0 0.99999998538 32.798700986 26.265584149)" fill="none" stroke="#999999" stroke-width="3.6" stroke-linecap="square" stroke-linejoin="bevel" width="480.24" height="653.04"/><text id="shape011" transform="matrix(1.0000000039 0 0 1.0000000028 661.09384429 85.760870516)" fill="#000000" font-family="Courier" font-size="28" font-size-adjust="0.368421" font-weight="600"><tspan x="0">PC</tspan></text><text id="shape11" transform="matrix(1.0000000435 0 0 0.99999998538 77.293706718 86.15652048)" fill="#000000" font-family="Courier" font-size="28" font-size-adjust="0.368421" font-weight="600"><tspan x="0">RC 1/10 X</tspan></text><path id="shape07" transform="matrix(0.99999996969 0 0 0.99999987658 272.91871142 653.94690345)" fill="none" stroke="#c66464" stroke-width="3.6" stroke-linecap="square" stroke-linejoin="miter" stroke-miterlimit="2.1600000858" marker-end="url(#lineMarker0)" krita:marker-fill-method="auto" d="M0 0C0 26.495 2.66327 112.756 288.681 115.827C580.218 112.679 578.468 41.6466 577.363 0"/><text id="shape2" transform="matrix(1.0000000037 0 0 0.99999994564 289.74792888 285.41280043)" fill="#000000" stroke="#c66464" stroke-width="1" stroke-linecap="square" stroke-linejoin="bevel" font-family="Courier" font-size="20" font-size-adjust="0.368421" font-weight="600"><tspan x="0">RAW images</tspan></text><text id="shape04" transform="matrix(0.9999999579 0 0 0.99999992174 288.51246514 519.45490033)" fill="#000000" stroke="#c66464" stroke-width="1" stroke-linecap="square" stroke-linejoin="bevel" font-family="Courier" font-size="20" font-size-adjust="0.368421" font-weight="600"><tspan x="0">h265</tspan></text><text id="shape05" transform="matrix(0.99999993703 0 0 0.99999994884 471.66253007 739.70035625)" fill="#000000" stroke="#c66464" stroke-width="1" stroke-linecap="square" stroke-linejoin="bevel" font-family="Courier" font-size="20" font-size-adjust="0.368421" font-weight="600"><tspan x="0">byte stream</tspan></text><path id="shape3" transform="matrix(1.0000000037 0 0 0.99999994564 272.91871142 193.81558802)" fill="none" stroke="#c66464" stroke-width="3.6" stroke-linecap="square" stroke-linejoin="miter" stroke-miterlimit="2.1600000858" marker-end="url(#lineMarker1)" krita:marker-fill-method="auto" d="M0 0L0 158.97"/><path id="shape06" transform="matrix(0.99999998671 0 0 0.99999989576 272.91871142 422.2784644)" fill="none" stroke="#c66464" stroke-width="3.6" stroke-linecap="square" stroke-linejoin="miter" stroke-miterlimit="2.1600000858" marker-end="url(#lineMarker2)" krita:marker-fill-method="auto" d="M0 0L0 158.97"/><text id="shape21" transform="matrix(0.99999997935 0 0 0.99999995754 867.1105599 285.4128023)" fill="#000000" stroke="#c66464" stroke-width="1" stroke-linecap="square" stroke-linejoin="bevel" font-family="Courier" font-size="20" font-size-adjust="0.368421" font-weight="600"><tspan x="0">RAW images</tspan></text><text id="shape041" transform="matrix(0.99999993352 0 0 0.99999993365 865.87509619 519.45490499)" fill="#000000" stroke="#c66464" stroke-width="1" stroke-linecap="square" stroke-linejoin="bevel" font-family="Courier" font-size="20" font-size-adjust="0.368421" font-weight="600"><tspan x="0">h265</tspan></text><path id="shape31" transform="matrix(0.99999997935 0 0 0.99999995754 850.28134284 193.8155888)" fill="none" stroke="#c66464" stroke-width="3.6" stroke-linecap="square" stroke-linejoin="miter" stroke-miterlimit="2.1600000858" marker-start="url(#lineMarker3)" krita:marker-fill-method="auto" d="M0 0L0 158.97"/><path id="shape061" transform="matrix(0.99999996233 0 0 0.99999990767 850.28169393 426.09759825)" fill="none" stroke="#c66464" stroke-width="3.6" stroke-linecap="square" stroke-linejoin="miter" stroke-miterlimit="2.1600000858" marker-start="url(#lineMarker4)" krita:marker-fill-method="auto" d="M0 0L0 158.97"/>
</svg>
