<?xml version="1.0" standalone="no"?>
<!DOCTYPE svg PUBLIC "-//W3C//DTD SVG 20010904//EN" "http://www.w3.org/TR/2001/REC-SVG-20010904/DTD/svg10.dtd">
<!-- Created using Krita: http://krita.org -->
<svg xmlns="http://www.w3.org/2000/svg" 
    xmlns:xlink="http://www.w3.org/1999/xlink"
    xmlns:krita="http://krita.org/namespaces/svg/krita"
    xmlns:sodipodi="http://sodipodi.sourceforge.net/DTD/sodipodi-0.dtd"
    width="639.36pt"
    height="525.6pt"
    viewBox="0 0 639.36 525.6">
<defs/>
<rect id="shape0" transform="translate(237.65634783, 12.859826087)" fill="none" stroke="#cb1313" stroke-width="2.16" stroke-linecap="square" stroke-linejoin="bevel" width="158.4" height="84.96"/><text id="shape1" transform="translate(327.21975275, 230.44434703)" fill="#000000" font-size="12" font-size-adjust="0.452206" font-weight="600"><tspan x="0">/remote_pc/*</tspan></text><text id="shape0" transform="matrix(0.99999997108 0 0 1.0000000276 499.62698208 422.77826026)" fill="#000000" font-size="12" font-size-adjust="0.452206" font-weight="600"><tspan x="0">/remote_pc/*</tspan></text><text id="shape01" transform="matrix(0.99999997108 0 0 1.0000000276 225.52736804 311.16845186)" fill="#000000" font-size="12" font-size-adjust="0.452206" font-weight="600"><tspan x="0">/robot_1/*</tspan></text><text id="shape02" transform="matrix(0.99999999672 0 0 1.0000000562 368.17501916 390.26227544)" fill="#000000" font-size="12" font-size-adjust="0.452206" font-weight="600"><tspan x="0">/robot_2/*</tspan></text><text id="shape2" transform="translate(253.23965217, 46.452869565)" fill="#0046aa" font-size="14" font-size-adjust="0.452206" font-weight="600" text-anchor="middle"><tspan x="62.40625">router</tspan><tspan x="62.40625" dy="27">192.168.110.1</tspan></text><text id="shape03" transform="matrix(0.99999995562 0 0 1 473.10150994 260.42434783)" fill="#0046aa" font-size="14" font-size-adjust="0.452206" font-weight="600" text-anchor="middle"><tspan x="67.8359375">remote-pc</tspan><tspan x="67.8359375" dy="27">192.168.110.10</tspan></text><text id="shape04" transform="matrix(0.99999998307 0 0 1 250.00100496 452.75826087)" fill="#0046aa" font-size="14" font-size-adjust="0.452206" font-weight="600" text-anchor="middle"><tspan x="62.40625">robot-2</tspan><tspan x="62.40625" dy="27">192.168.110.6</tspan></text><text id="shape3" transform="translate(36.864, 260.42434783)" fill="#0046aa" font-size="14" font-size-adjust="0.452206" font-weight="600" text-anchor="middle"><tspan x="62.40625">robot-1</tspan><tspan x="62.40625" dy="27">192.168.110.5</tspan></text><rect id="shape05" transform="matrix(0.99999999822 0 0 1.0000000187 19.79555661 223.94434703)" fill="none" stroke="#cb1313" stroke-width="2.16" stroke-linecap="square" stroke-linejoin="bevel" width="158.4" height="84.96"/><rect id="shape06" transform="matrix(0.99999999822 0 0 1.0000000187 235.74678275 416.27826008)" fill="none" stroke="#cb1313" stroke-width="2.16" stroke-linecap="square" stroke-linejoin="bevel" width="158.4" height="84.96"/><rect id="shape07" transform="matrix(0.99999999822 0 0 1.0000000187 459.19327942 223.94434703)" fill="none" stroke="#cb1313" stroke-width="2.16" stroke-linecap="square" stroke-linejoin="bevel" width="158.4" height="84.96"/><path id="shape4" transform="translate(100.17391304, 97.819826087)" fill="none" stroke="#cb1313" stroke-width="2.16" stroke-linecap="square" stroke-linejoin="miter" stroke-miterlimit="2" d="M166.689 0L0 126.125"/><path id="shape5" transform="matrix(-1 0 0 1 314.94678261 97.819826087)" fill="none" stroke="#cb1313" stroke-width="2.16" stroke-linecap="square" stroke-linejoin="miter" stroke-miterlimit="2" d="M0.801391 0L0 318.458"/><path id="shape6" transform="translate(358.6840624, 97.819826087)" fill="none" stroke="#cb1313" stroke-width="2.16" stroke-linecap="square" stroke-linejoin="miter" stroke-miterlimit="2" d="M0 0L177.447 126.125"/><path id="shape7" transform="translate(421.53182609, 325.36486957)" fill="none" stroke="#be13cc" stroke-width="2.16" stroke-linecap="square" stroke-linejoin="miter" stroke-miterlimit="2" d="M82.5433 0L0 106.393"/><path id="shape8" transform="translate(431.14852174, 325.36486957)" fill="none" stroke="#be13cc" stroke-width="2.16" stroke-linecap="square" stroke-linejoin="miter" stroke-miterlimit="2" d="M0 160.393L125.818 0"/><path id="shape9" transform="translate(80.139130435, 337.38573913)" fill="none" stroke="#be13cc" stroke-width="2.16" stroke-linecap="square" stroke-linejoin="miter" stroke-miterlimit="2" d="M0 0L114.599 121.373"/><path id="shape10" transform="translate(137.254625, 337.38573913)" fill="none" stroke="#be13cc" stroke-width="2.16" stroke-linecap="square" stroke-linejoin="miter" stroke-miterlimit="2" d="M0 0L68.7029 78.8925"/><path id="shape11" transform="matrix(0.99999999943 3.3822313277e-05 -3.3822313277e-05 0.99999999943 222.02736827 284.49030718)" fill="none" stroke="#be13cc" stroke-width="2.16" stroke-linecap="square" stroke-linejoin="miter" stroke-miterlimit="2" d="M0 0L199.504 0.801391"/><path id="shape12" transform="translate(235.74678275, 239.42434783)" fill="none" stroke="#be13cc" stroke-width="2.16" stroke-linecap="square" stroke-linejoin="miter" stroke-miterlimit="2" d="M195.402 0L0 0"/><path id="shape13" transform="translate(137.254625, 337.38573913)" fill="none" stroke="#be13cc" stroke-width="2.16" stroke-linecap="square" stroke-linejoin="miter" stroke-miterlimit="2" d="M0 0L2.84217e-14 16.0278"/><path id="shape14" transform="translate(194.73808696, 443.1693913)" fill="none" stroke="#be13cc" stroke-width="2.16" stroke-linecap="square" stroke-linejoin="miter" stroke-miterlimit="2" d="M0 15.5889L0 0"/><path id="shape15" transform="translate(178.19555633, 458.75826087)" fill="none" stroke="#be13cc" stroke-width="2.16" stroke-linecap="square" stroke-linejoin="miter" stroke-miterlimit="2" d="M16.5425 0L0 0"/><path id="shape16" transform="translate(137.254625, 337.38573913)" fill="none" stroke="#be13cc" stroke-width="2.16" stroke-linecap="square" stroke-linejoin="miter" stroke-miterlimit="2" d="M0 0L19.8181 0"/><path id="shape17" transform="translate(488.32025927, 325.36486957)" fill="none" stroke="#be13cc" stroke-width="2.16" stroke-linecap="square" stroke-linejoin="miter" stroke-miterlimit="2" d="M0 0L15.7549 0"/><path id="shape18" transform="translate(504.07513043, 325.36486957)" fill="none" stroke="#be13cc" stroke-width="2.16" stroke-linecap="square" stroke-linejoin="miter" stroke-miterlimit="2" d="M0 0L0 12.0209"/><path id="shape19" transform="translate(431.14852174, 469.61530435)" fill="none" stroke="#be13cc" stroke-width="2.16" stroke-linecap="square" stroke-linejoin="miter" stroke-miterlimit="2" d="M0 0L0 16.143"/><path id="shape20" transform="translate(431.14852174, 485.75826087)" fill="none" stroke="#be13cc" stroke-width="2.16" stroke-linecap="square" stroke-linejoin="miter" stroke-miterlimit="2" d="M0 0L17.6306 0"/><path id="shape21" transform="translate(235.74678275, 223.94434703)" fill="none" stroke="#be13cc" stroke-width="2.16" stroke-linecap="square" stroke-linejoin="miter" stroke-miterlimit="2" d="M10.7542 0L0 15.48"/><path id="shape22" transform="translate(235.74678275, 239.42434783)" fill="none" stroke="#be13cc" stroke-width="2.16" stroke-linecap="square" stroke-linejoin="miter" stroke-miterlimit="2" d="M0 0L13.9929 15.4181"/><path id="shape23" transform="translate(409.51095652, 266.42434783)" fill="none" stroke="#be13cc" stroke-width="2.16" stroke-linecap="square" stroke-linejoin="miter" stroke-miterlimit="2" d="M0 0L12.0209 18.0696"/><path id="shape24" transform="translate(409.88405077, 284.49391304)" fill="none" stroke="#be13cc" stroke-width="2.16" stroke-linecap="square" stroke-linejoin="miter" stroke-miterlimit="2" d="M11.6478 0L0 20.1745"/><text id="shape08" transform="matrix(0.99999999672 0 0 1.0000000562 38.80319307 401.76227609)" fill="#000000" font-size="12" font-size-adjust="0.452206" font-weight="600"><tspan x="0">/robot_1/*</tspan></text><text id="shape09" transform="matrix(0.99999999087 0 0 1.0000000614 196.3204107 390.26227547)" fill="#000000" font-size="12" font-size-adjust="0.452206" font-weight="600"><tspan x="0">/robot_2/*</tspan></text>
</svg>
